<svg xmlns="http://www.w3.org/2000/svg" width="896" height="256" viewBox="0 0 896 256">
  <g id="device" transform="translate(-390 -474)">
    <g id="Rectangle_33" data-name="Rectangle 33" transform="translate(390 474)" fill="#de2935" stroke="#080708" stroke-width="10">
      <rect width="896" height="256" rx="32" stroke="none"/>
      <rect x="5" y="5" width="886" height="246" rx="27" fill="none"/>
    </g>
    <g id="switch" transform="translate(543.5 557.5)">
      <rect id="Rectangle_42" data-name="Rectangle 42" width="155" height="89" rx="32" transform="translate(434)" fill="#fec941" opacity="0.498"/>
      <rect id="Rectangle_37" data-name="Rectangle 37" width="155" height="89" rx="32" fill="#fec941"/>
      <text id="On" transform="translate(30 67)" fill="#080708" font-size="64" font-family="Arial-BoldMT, Arial" font-weight="700"><tspan x="0" y="0">ON</tspan></text>
      <text id="Off" transform="translate(448 67)" fill="#080708" font-size="64" font-family="Arial-BoldMT, Arial" font-weight="700" opacity="0.504"><tspan x="0" y="0">OFF</tspan></text>
      <g id="Path_56" data-name="Path 56" transform="translate(196.533)" fill="#080708">
        <path d="M 159 84 L 32 84 C 28.35282325744629 84 24.8173828125 83.28682708740234 21.49191093444824 81.88026428222656 C 18.27738189697266 80.52061462402344 15.38935279846191 78.5731201171875 12.90811729431152 76.09188079833984 C 10.42688274383545 73.61064910888672 8.479382514953613 70.72261810302734 7.119735240936279 67.50808715820312 C 5.713176250457764 64.1826171875 5 60.64717483520508 5 57 L 5 32 C 5 28.35282325744629 5.713176250457764 24.8173828125 7.119735240936279 21.49191093444824 C 8.479382514953613 18.27738189697266 10.42688274383545 15.38935279846191 12.90811729431152 12.90811729431152 C 15.38935279846191 10.42688274383545 18.27738189697266 8.479382514953613 21.49191093444824 7.119735240936279 C 24.8173828125 5.713176250457764 28.35282325744629 5 32 5 L 159 5 C 162.6471710205078 5 166.1826171875 5.713176250457764 169.5080871582031 7.119735240936279 C 172.7226104736328 8.479382514953613 175.6106414794922 10.42688274383545 178.0918884277344 12.90811729431152 C 180.5731201171875 15.38935279846191 182.5206146240234 18.27738189697266 183.8802642822266 21.49191093444824 C 185.2868194580078 24.8173828125 186 28.35282325744629 186 32 L 186 57 C 186 60.64717483520508 185.2868194580078 64.1826171875 183.8802642822266 67.50808715820312 C 182.5206146240234 70.72261810302734 180.5731201171875 73.61064910888672 178.0918884277344 76.09188079833984 C 175.6106414794922 78.5731201171875 172.7226104736328 80.52061462402344 169.5080871582031 81.88026428222656 C 166.1826171875 83.28682708740234 162.6471710205078 84 159 84 Z" stroke="none"/>
        <path d="M 32 10 C 19.86917114257812 10 10 19.86916351318359 10 32 L 10 57 C 10 69.13082885742188 19.86917114257812 79 32 79 L 159 79 C 171.1308288574219 79 181 69.13082885742188 181 57 L 181 32 C 181 19.86916351318359 171.1308288574219 10 159 10 L 32 10 M 32 0 L 159 0 C 176.673095703125 0 191 14.32689666748047 191 32 L 191 57 C 191 74.67310333251953 176.673095703125 89 159 89 L 32 89 C 14.326904296875 89 0 74.67310333251953 0 57 L 0 32 C 0 14.32689666748047 14.326904296875 0 32 0 Z" stroke="none" fill="#080708"/>
      </g>
      <g id="Rectangle_35" data-name="Rectangle 35" transform="translate(221)" fill="#fec941" stroke="#080708" stroke-width="10">
        <rect width="57" height="89" rx="16" stroke="none"/>
        <rect x="5" y="5" width="47" height="79" rx="11" fill="none"/>
      </g>
    </g>
  </g>
</svg>
