<svg xmlns="http://www.w3.org/2000/svg" width="208" height="208" viewBox="0 0 208 208">
  <g id="Path_45" data-name="Path 45" fill="#de2935">
    <path d="M 104 203 C 97.27971649169922 203 90.56512451171875 202.3232879638672 84.04274749755859 200.9885864257812 C 77.68869018554688 199.6883697509766 71.43865966796875 197.7482452392578 65.46624755859375 195.2221221923828 C 59.60118865966797 192.7414093017578 53.94393920898438 189.6707153320312 48.65165710449219 186.0953063964844 C 43.40834426879883 182.5529937744141 38.47762680053711 178.4847564697266 33.99643707275391 174.0035552978516 C 29.51521873474121 169.5223693847656 25.44696807861328 164.5916595458984 21.90468788146973 159.3483428955078 C 18.32928085327148 154.0560607910156 15.2585620880127 148.3988189697266 12.7778434753418 142.5337219238281 C 10.25174999237061 136.5613403320312 8.311624526977539 130.3113098144531 7.011406421661377 123.9572525024414 C 5.676718711853027 117.4348754882812 5 110.7202835083008 5 104 C 5 97.27971649169922 5.676718711853027 90.56512451171875 7.011406421661377 84.04274749755859 C 8.311624526977539 77.68869018554688 10.25174999237061 71.43865966796875 12.7778434753418 65.46624755859375 C 15.2585620880127 59.60118865966797 18.32928085327148 53.94393920898438 21.90468788146973 48.65162658691406 C 25.44696807861328 43.40834426879883 29.51521873474121 38.47762680053711 33.99643707275391 33.99643707275391 C 38.47762680053711 29.51521873474121 43.40834426879883 25.44696807861328 48.65162658691406 21.90468788146973 C 53.94393920898438 18.32928085327148 59.60118865966797 15.2585620880127 65.46624755859375 12.7778434753418 C 71.43865966796875 10.25174999237061 77.68869018554688 8.311624526977539 84.04274749755859 7.011406421661377 C 90.56512451171875 5.676718711853027 97.27971649169922 5 104 5 C 110.7202835083008 5 117.4348754882812 5.676718711853027 123.9572525024414 7.011406421661377 C 130.3113098144531 8.311624526977539 136.5613403320312 10.25174999237061 142.5337219238281 12.7778434753418 C 148.3988189697266 15.2585620880127 154.0560607910156 18.32928085327148 159.3483428955078 21.90468788146973 C 164.5916595458984 25.44696807861328 169.5223693847656 29.51521873474121 174.0035552978516 33.99643707275391 C 178.4847564697266 38.47762680053711 182.5529937744141 43.40834426879883 186.0953063964844 48.65165710449219 C 189.6707153320312 53.94393920898438 192.7414093017578 59.60118865966797 195.2221221923828 65.46624755859375 C 197.7482452392578 71.43865966796875 199.6883697509766 77.68869018554688 200.9885864257812 84.04274749755859 C 202.3232879638672 90.56512451171875 203 97.27971649169922 203 104 C 203 110.7202835083008 202.3232879638672 117.4348754882812 200.9885864257812 123.9572525024414 C 199.6883697509766 130.3113098144531 197.7482452392578 136.5613098144531 195.2221221923828 142.5337219238281 C 192.7414093017578 148.3988189697266 189.6707153320312 154.0560607910156 186.0953063964844 159.3483428955078 C 182.5529937744141 164.5916290283203 178.4847564697266 169.5223693847656 174.0035552978516 174.0035552978516 C 169.5223693847656 178.4847564697266 164.5916290283203 182.5529937744141 159.3483428955078 186.0953063964844 C 154.0560607910156 189.6707153320312 148.3988189697266 192.7414093017578 142.5337219238281 195.2221221923828 C 136.5613098144531 197.7482452392578 130.3113098144531 199.6883697509766 123.9572525024414 200.9885864257812 C 117.4348754882812 202.3232879638672 110.7202835083008 203 104 203 Z" stroke="none"/>
    <path d="M 104 10 C 52.168212890625 10 10 52.168212890625 10 104 C 10 155.831787109375 52.168212890625 198 104 198 C 155.831787109375 198 198 155.831787109375 198 104 C 198 52.168212890625 155.831787109375 10 104 10 M 104 0 C 161.4376068115234 0 208 46.56239318847656 208 104 C 208 161.4376068115234 161.4376068115234 208 104 208 C 46.56239318847656 208 0 161.4376068115234 0 104 C 0 46.56239318847656 46.56239318847656 0 104 0 Z" stroke="none" fill="#080708"/>
  </g>
</svg>
