<svg xmlns="http://www.w3.org/2000/svg" width="282.809" height="282.809" viewBox="0 0 282.809 282.809">
  <g id="Path_45" data-name="Path 45" transform="matrix(1, -0.017, 0.017, 1, 0, 4.852)" fill="#fe2d2d">
    <path d="M 139 270 C 66.76637268066406 270 8 211.2336273193359 8 139 C 8 66.76637268066406 66.76637268066406 8 139 8 C 211.2336273193359 8 270 66.76637268066406 270 139 C 270 211.2336273193359 211.2336273193359 270 139 270 Z" stroke="none"/>
    <path d="M 139 16 C 71.17755126953125 16 16 71.17755126953125 16 139 C 16 206.8224487304688 71.17755126953125 262 139 262 C 206.8224487304688 262 262 206.8224487304688 262 139 C 262 71.17755126953125 206.8224487304688 16 139 16 M 139 0 C 215.7675476074219 0 278 62.23240661621094 278 139 C 278 215.7675476074219 215.7675476074219 278 139 278 C 62.23240661621094 278 0 215.7675476074219 0 139 C 0 62.23240661621094 62.23240661621094 0 139 0 Z" stroke="none" fill="#fff"/>
  </g>
</svg>
